# xmcd CD database file
#
# Track frame offsets:
#	182
#	52002
#	93837
#	130402
#
# Disc length: 2413 seconds
#
# Revision: 0
# Processed by: cddbd v1.5.2PL0 Copyright (c) Steve Scherf et al.
# Submitted via: CDex 1.50
#
DISCID=30096b04
DTITLE=Walt Dickerson - To My Son
DYEAR=1978
DGENRE=Jazz
TTITLE0=You Can
TTITLE1=You Will
TTITLE2=It Is Done
TTITLE3=Thank You Son
EXTD=YEAR: 1978
EXTT0=
EXTT1=
EXTT2=
EXTT3=
PLAYORDER=
